# xmcd CD database file
#
# Track frame offsets:
#	150
#	20375
#	38062
#
# Disc length: 691 seconds
#
# Revision: 0
# Processed by: cddbd v1.5PL3 Copyright (c) Steve Scherf et al.
# Submitted via: CDex 1.51
#
DISCID=1802b103
DTITLE=Carolyn Wonderland and The Imperial Monkeys - Blue Lights
DYEAR=1997
DGENRE=Blues
TTITLE0=Blue Lights
TTITLE1=Stuck In The Road
TTITLE2=Oh Yeah
EXTD=YEAR: 1997
EXTT0=
EXTT1=
EXTT2=
PLAYORDER=
